<svg xmlns="http://www.w3.org/2000/svg" xmlns:xlink="http://www.w3.org/1999/xlink" version="1.1" x="0px" y="0px" width="100px" height="100px" viewBox="0 0 100 100" enable-background="new 0 0 100 100" xml:space="preserve">
<g id="Paint_1_">
</g>
<g id="Time">
</g>
<g id="Peg">
</g>
<g id="Peg_2">
</g>
<g id="Spray">
</g>
<g id="Service">
</g>
<g id="Green_Tea">
</g>
<g id="Dispenser">
</g>
<g id="Handheld_Vacuum">
</g>
<g id="Fan">
</g>
<g id="Glitter">
</g>
<g id="ID">
</g>
<g id="Security">
</g>
<g id="Security_2">
</g>
<g id="Work">
</g>
<g id="Calculator">
</g>
<g id="Workflow">
</g>
<g id="Crowd">
</g>
<g id="Apple">
</g>
<g id="Digital">
</g>
<g id="Umbrella">
</g>
<g id="Spade">
</g>
<g id="Cracked">
</g>
<g id="All_Weather">
</g>
<g id="Target">
</g>
<g id="Factory">
</g>
<g id="Plug">
</g>
<g id="Measurement">
</g>
<g id="Fist">
</g>
<g id="Gas_Mask">
</g>
<g id="Scary">
</g>
<g id="Smoke">
</g>
<g id="Comb">
</g>
<g id="Notification">
</g>
<g id="Current_Location">
</g>
<g id="Order">
</g>
<g id="Presentation">
</g>
<g id="Overtime">
</g>
<g id="Anxious">
</g>
<g id="Mindmap">
</g>
<g id="Torch">
</g>
<g id="Watch">
</g>
<g id="Nurse">
</g>
<g id="Building">
</g>
<g id="Mic">
</g>
<g id="Art">
</g>
<g id="Crop_Marks">
</g>
<g id="Monitor">
</g>
<g id="Clockface">
</g>
<g id="Clockface_2">
</g>
<g id="Xerox">
</g>
<g id="Xerox_2">
</g>
<g id="Typewriter">
</g>
<g id="Shredder">
</g>
<g id="CD">
</g>
<g id="Tablet">
</g>
<g id="Tape">
	<path d="M95,32.44H5v-9.032h90V32.44z M15.367,54.478c0-4.209,1.914-7.979,4.916-10.487c-3.687,0.166-6.653,4.782-6.653,10.431   c0,5.589,2.899,10.166,6.529,10.429C17.229,62.345,15.367,58.627,15.367,54.478z M16.651,54.478c0,4.347,2.256,8.179,5.657,10.387   c2.597,0,7.142,0,7.941,0c0-0.358,0-2.325,0-4.917c-2.381-0.679-4.126-2.873-4.126-5.471c0-2.6,1.746-4.791,4.126-5.469   c0-2.648,0-4.663,0-5.025c-0.781,0-5.156,0-7.776,0C18.98,46.175,16.651,50.058,16.651,54.478z M95,33.723v42.869H5V33.723H95z    M31.534,42.701h-0.642h-5.673h-1.745h-1.359h-1.626c-4.49,0-8.143,5.257-8.143,11.722c0,6.466,3.653,11.726,8.143,11.726h1.456   h1.311h1.65h6.628V42.701z M62.533,42.701h-0.642H37.466v23.448h25.068V42.701z M68.466,50.087v8.782v2.574v4.706h11.046   c4.49,0,8.141-5.26,8.141-11.726c0-6.465-3.651-11.722-8.141-11.722h-4.338H73.8h-4.692h-0.642v4.813 M84.548,54.371   c0,4.209-1.914,7.979-4.916,10.487c3.687-0.166,6.653-4.782,6.653-10.431c0-5.589-2.899-10.166-6.529-10.429   C82.687,46.504,84.548,50.222,84.548,54.371z M83.264,54.371c0-4.347-2.256-8.179-5.657-10.387c-2.597,0-7.142,0-7.941,0   c0,0.358,0,2.325,0,4.917c2.381,0.679,4.126,2.873,4.126,5.471c0,2.6-1.746,4.791-4.126,5.469c0,2.648,0,4.663,0,5.025   c0.781,0,5.156,0,7.776,0C80.936,62.674,83.264,58.791,83.264,54.371z"/>
</g>
</svg>